<?xml version="1.0" encoding="utf-8" standalone="no"?>
<!DOCTYPE svg PUBLIC "-//W3C//DTD SVG 1.1//EN"
  "http://www.w3.org/Graphics/SVG/1.1/DTD/svg11.dtd">
<svg xmlns:xlink="http://www.w3.org/1999/xlink" width="712.8pt" height="1001.4375pt" viewBox="0 0 712.8 1001.4375" xmlns="http://www.w3.org/2000/svg" version="1.1">
 <metadata>
  <rdf:RDF xmlns:dc="http://purl.org/dc/elements/1.1/" xmlns:cc="http://creativecommons.org/ns#" xmlns:rdf="http://www.w3.org/1999/02/22-rdf-syntax-ns#">
   <cc:Work>
    <dc:type rdf:resource="http://purl.org/dc/dcmitype/StillImage"/>
    <dc:date>2025-03-19T19:42:36.865969</dc:date>
    <dc:format>image/svg+xml</dc:format>
    <dc:creator>
     <cc:Agent>
      <dc:title>Matplotlib v3.9.2, https://matplotlib.org/</dc:title>
     </cc:Agent>
    </dc:creator>
   </cc:Work>
  </rdf:RDF>
 </metadata>
 <defs>
  <style type="text/css">*{stroke-linejoin: round; stroke-linecap: butt}</style>
 </defs>
 <g id="figure_1">
  <g id="patch_1">
   <path d="M 0 1001.4375 
L 712.8 1001.4375 
L 712.8 0 
L 0 0 
z
" style="fill: #ffffff"/>
  </g>
  <g id="axes_1">
   <g id="patch_2">
    <path d="M 146.88 958.4295 
L 565.92 958.4295 
Q 572.904 958.4295 572.904 954.450833 
L 572.904 914.664167 
Q 572.904 910.6855 565.92 910.6855 
L 146.88 910.6855 
Q 139.896 910.6855 139.896 914.664167 
L 139.896 954.450833 
Q 139.896 958.4295 146.88 958.4295 
z
" clip-path="url(#pfe51efb4b6)" style="fill: #1abc9c; opacity: 0.9; stroke: #000000; stroke-linejoin: miter"/>
   </g>
   <g id="patch_3">
    <path d="M 146.88 878.856167 
L 565.92 878.856167 
Q 572.904 878.856167 572.904 874.8775 
L 572.904 835.090833 
Q 572.904 831.112167 565.92 831.112167 
L 146.88 831.112167 
Q 139.896 831.112167 139.896 835.090833 
L 139.896 874.8775 
Q 139.896 878.856167 146.88 878.856167 
z
" clip-path="url(#pfe51efb4b6)" style="fill: #1abc9c; opacity: 0.9; stroke: #000000; stroke-linejoin: miter"/>
   </g>
   <g id="patch_4">
    <path d="M 146.88 799.282833 
L 565.92 799.282833 
Q 572.904 799.282833 572.904 795.304167 
L 572.904 755.5175 
Q 572.904 751.538833 565.92 751.538833 
L 146.88 751.538833 
Q 139.896 751.538833 139.896 755.5175 
L 139.896 795.304167 
Q 139.896 799.282833 146.88 799.282833 
z
" clip-path="url(#pfe51efb4b6)" style="fill: #1abc9c; opacity: 0.9; stroke: #000000; stroke-linejoin: miter"/>
   </g>
   <g id="patch_5">
    <path d="M 146.88 719.7095 
L 565.92 719.7095 
Q 572.904 719.7095 572.904 715.730833 
L 572.904 675.944167 
Q 572.904 671.9655 565.92 671.9655 
L 146.88 671.9655 
Q 139.896 671.9655 139.896 675.944167 
L 139.896 715.730833 
Q 139.896 719.7095 146.88 719.7095 
z
" clip-path="url(#pfe51efb4b6)" style="fill: #1abc9c; opacity: 0.9; stroke: #000000; stroke-linejoin: miter"/>
   </g>
   <g id="patch_6">
    <path d="M 146.88 640.136167 
L 565.92 640.136167 
Q 572.904 640.136167 572.904 636.1575 
L 572.904 596.370833 
Q 572.904 592.392167 565.92 592.392167 
L 146.88 592.392167 
Q 139.896 592.392167 139.896 596.370833 
L 139.896 636.1575 
Q 139.896 640.136167 146.88 640.136167 
z
" clip-path="url(#pfe51efb4b6)" style="fill: #1abc9c; opacity: 0.9; stroke: #000000; stroke-linejoin: miter"/>
   </g>
   <g id="patch_7">
    <path d="M 146.88 560.562833 
L 565.92 560.562833 
Q 572.904 560.562833 572.904 556.584167 
L 572.904 516.7975 
Q 572.904 512.818833 565.92 512.818833 
L 146.88 512.818833 
Q 139.896 512.818833 139.896 516.7975 
L 139.896 556.584167 
Q 139.896 560.562833 146.88 560.562833 
z
" clip-path="url(#pfe51efb4b6)" style="fill: #1abc9c; opacity: 0.9; stroke: #000000; stroke-linejoin: miter"/>
   </g>
   <g id="patch_8">
    <path d="M 146.88 480.9895 
L 565.92 480.9895 
Q 572.904 480.9895 572.904 477.010833 
L 572.904 437.224167 
Q 572.904 433.2455 565.92 433.2455 
L 146.88 433.2455 
Q 139.896 433.2455 139.896 437.224167 
L 139.896 477.010833 
Q 139.896 480.9895 146.88 480.9895 
z
" clip-path="url(#pfe51efb4b6)" style="fill: #1abc9c; opacity: 0.9; stroke: #000000; stroke-linejoin: miter"/>
   </g>
   <g id="patch_9">
    <path d="M 146.88 401.416167 
L 565.92 401.416167 
Q 572.904 401.416167 572.904 397.4375 
L 572.904 357.650833 
Q 572.904 353.672167 565.92 353.672167 
L 146.88 353.672167 
Q 139.896 353.672167 139.896 357.650833 
L 139.896 397.4375 
Q 139.896 401.416167 146.88 401.416167 
z
" clip-path="url(#pfe51efb4b6)" style="fill: #1abc9c; opacity: 0.9; stroke: #000000; stroke-linejoin: miter"/>
   </g>
   <g id="patch_10">
    <path d="M 146.88 321.842833 
L 565.92 321.842833 
Q 572.904 321.842833 572.904 317.864167 
L 572.904 278.0775 
Q 572.904 274.098833 565.92 274.098833 
L 146.88 274.098833 
Q 139.896 274.098833 139.896 278.0775 
L 139.896 317.864167 
Q 139.896 321.842833 146.88 321.842833 
z
" clip-path="url(#pfe51efb4b6)" style="fill: #1abc9c; opacity: 0.9; stroke: #000000; stroke-linejoin: miter"/>
   </g>
   <g id="patch_11">
    <path d="M 146.88 242.2695 
L 565.92 242.2695 
Q 572.904 242.2695 572.904 238.290833 
L 572.904 198.504167 
Q 572.904 194.5255 565.92 194.5255 
L 146.88 194.5255 
Q 139.896 194.5255 139.896 198.504167 
L 139.896 238.290833 
Q 139.896 242.2695 146.88 242.2695 
z
" clip-path="url(#pfe51efb4b6)" style="fill: #1abc9c; opacity: 0.9; stroke: #000000; stroke-linejoin: miter"/>
   </g>
   <g id="patch_12">
    <path d="M 216.72 182.5895 
L 496.08 182.5895 
Q 503.064 182.5895 503.064 178.610833 
L 503.064 138.824167 
Q 503.064 134.8455 496.08 134.8455 
L 216.72 134.8455 
Q 209.736 134.8455 209.736 138.824167 
L 209.736 178.610833 
Q 209.736 182.5895 216.72 182.5895 
z
" clip-path="url(#pfe51efb4b6)" style="fill: #1abc9c; opacity: 0.9; stroke: #000000; stroke-linejoin: miter"/>
   </g>
   <g id="patch_13">
    <path d="M 146.88 122.9095 
L 565.92 122.9095 
Q 572.904 122.9095 572.904 118.930833 
L 572.904 79.144167 
Q 572.904 75.1655 565.92 75.1655 
L 146.88 75.1655 
Q 139.896 75.1655 139.896 79.144167 
L 139.896 118.930833 
Q 139.896 122.9095 146.88 122.9095 
z
" clip-path="url(#pfe51efb4b6)" style="fill: #1abc9c; opacity: 0.9; stroke: #000000; stroke-linejoin: miter"/>
   </g>
   <g id="patch_14">
    <path d="M 146.88 83.122833 
L 565.92 83.122833 
Q 572.904 83.122833 572.904 79.144167 
L 572.904 39.3575 
Q 572.904 35.378833 565.92 35.378833 
L 146.88 35.378833 
Q 139.896 35.378833 139.896 39.3575 
L 139.896 79.144167 
Q 139.896 83.122833 146.88 83.122833 
z
" clip-path="url(#pfe51efb4b6)" style="fill: #1abc9c; opacity: 0.9; stroke: #000000; stroke-linejoin: miter"/>
   </g>
   <g id="patch_15">
    <path d="M 356.4 870.898833 
L 366.876 878.856167 
L 356.43492 878.856167 
L 356.43492 914.664167 
L 356.36508 914.664167 
L 356.36508 878.856167 
L 345.924 878.856167 
z
" clip-path="url(#pfe51efb4b6)" style="fill: #34495e; stroke: #34495e; stroke-width: 2; stroke-linejoin: miter"/>
   </g>
   <g id="patch_16">
    <path d="M 356.4 791.3255 
L 366.876 799.282833 
L 356.43492 799.282833 
L 356.43492 835.090833 
L 356.36508 835.090833 
L 356.36508 799.282833 
L 345.924 799.282833 
z
" clip-path="url(#pfe51efb4b6)" style="fill: #34495e; stroke: #34495e; stroke-width: 2; stroke-linejoin: miter"/>
   </g>
   <g id="patch_17">
    <path d="M 356.4 711.752167 
L 366.876 719.7095 
L 356.43492 719.7095 
L 356.43492 755.5175 
L 356.36508 755.5175 
L 356.36508 719.7095 
L 345.924 719.7095 
z
" clip-path="url(#pfe51efb4b6)" style="fill: #34495e; stroke: #34495e; stroke-width: 2; stroke-linejoin: miter"/>
   </g>
   <g id="patch_18">
    <path d="M 356.4 632.178833 
L 366.876 640.136167 
L 356.43492 640.136167 
L 356.43492 675.944167 
L 356.36508 675.944167 
L 356.36508 640.136167 
L 345.924 640.136167 
z
" clip-path="url(#pfe51efb4b6)" style="fill: #34495e; stroke: #34495e; stroke-width: 2; stroke-linejoin: miter"/>
   </g>
   <g id="patch_19">
    <path d="M 356.4 552.6055 
L 366.876 560.562833 
L 356.43492 560.562833 
L 356.43492 596.370833 
L 356.36508 596.370833 
L 356.36508 560.562833 
L 345.924 560.562833 
z
" clip-path="url(#pfe51efb4b6)" style="fill: #34495e; stroke: #34495e; stroke-width: 2; stroke-linejoin: miter"/>
   </g>
   <g id="patch_20">
    <path d="M 356.4 473.032167 
L 366.876 480.9895 
L 356.43492 480.9895 
L 356.43492 516.7975 
L 356.36508 516.7975 
L 356.36508 480.9895 
L 345.924 480.9895 
z
" clip-path="url(#pfe51efb4b6)" style="fill: #34495e; stroke: #34495e; stroke-width: 2; stroke-linejoin: miter"/>
   </g>
   <g id="patch_21">
    <path d="M 356.4 393.458833 
L 366.876 401.416167 
L 356.43492 401.416167 
L 356.43492 437.224167 
L 356.36508 437.224167 
L 356.36508 401.416167 
L 345.924 401.416167 
z
" clip-path="url(#pfe51efb4b6)" style="fill: #34495e; stroke: #34495e; stroke-width: 2; stroke-linejoin: miter"/>
   </g>
   <g id="patch_22">
    <path d="M 356.4 313.8855 
L 366.876 321.842833 
L 356.43492 321.842833 
L 356.43492 357.650833 
L 356.36508 357.650833 
L 356.36508 321.842833 
L 345.924 321.842833 
z
" clip-path="url(#pfe51efb4b6)" style="fill: #34495e; stroke: #34495e; stroke-width: 2; stroke-linejoin: miter"/>
   </g>
   <g id="patch_23">
    <path d="M 356.4 234.312167 
L 366.876 242.2695 
L 356.43492 242.2695 
L 356.43492 278.0775 
L 356.36508 278.0775 
L 356.36508 242.2695 
L 345.924 242.2695 
z
" clip-path="url(#pfe51efb4b6)" style="fill: #34495e; stroke: #34495e; stroke-width: 2; stroke-linejoin: miter"/>
   </g>
   <g id="patch_24">
    <path d="M 356.4 174.632167 
L 366.876 182.5895 
L 356.43492 182.5895 
L 356.43492 198.504167 
L 356.36508 198.504167 
L 356.36508 182.5895 
L 345.924 182.5895 
z
" clip-path="url(#pfe51efb4b6)" style="fill: #34495e; stroke: #34495e; stroke-width: 2; stroke-linejoin: miter"/>
   </g>
   <g id="patch_25">
    <path d="M 356.4 114.952167 
L 366.876 122.9095 
L 356.43492 122.9095 
L 356.43492 138.824167 
L 356.36508 138.824167 
L 356.36508 122.9095 
L 345.924 122.9095 
z
" clip-path="url(#pfe51efb4b6)" style="fill: #34495e; stroke: #34495e; stroke-width: 2; stroke-linejoin: miter"/>
   </g>
   <g id="patch_26">
    <path d="M 356.4 91.080167 
L 345.924 83.122833 
L 356.36508 83.122833 
L 356.36508 79.144167 
L 356.43492 79.144167 
L 356.43492 83.122833 
L 366.876 83.122833 
z
" clip-path="url(#pfe51efb4b6)" style="fill: #34495e; stroke: #34495e; stroke-width: 2; stroke-linejoin: miter"/>
   </g>
   <g id="patch_27">
    <path d="M 286.56 242.2695 
L 276.084 234.312167 
L 286.52508 234.312167 
L 286.52508 158.7175 
L 286.59492 158.7175 
L 286.59492 234.312167 
L 297.036 234.312167 
z
" clip-path="url(#pfe51efb4b6)" style="fill: #34495e; stroke: #34495e; stroke-width: 2; stroke-linejoin: miter"/>
   </g>
   <g id="patch_28">
    <path d="M 426.24 242.2695 
L 415.764 234.312167 
L 426.20508 234.312167 
L 426.20508 158.7175 
L 426.27492 158.7175 
L 426.27492 234.312167 
L 436.716 234.312167 
z
" clip-path="url(#pfe51efb4b6)" style="fill: #34495e; stroke: #34495e; stroke-width: 2; stroke-linejoin: miter"/>
   </g>
   <g id="text_1">
    <!-- End -->
    <g style="fill: #ffffff" transform="translate(346.957031 937.149688) scale(0.1 -0.1)">
     <defs>
      <path id="Arial-BoldMT-45" d="M 466 0 
L 466 4581 
L 3863 4581 
L 3863 3806 
L 1391 3806 
L 1391 2791 
L 3691 2791 
L 3691 2019 
L 1391 2019 
L 1391 772 
L 3950 772 
L 3950 0 
L 466 0 
z
" transform="scale(0.015625)"/>
      <path id="Arial-BoldMT-6e" d="M 3478 0 
L 2600 0 
L 2600 1694 
Q 2600 2231 2544 2389 
Q 2488 2547 2361 2634 
Q 2234 2722 2056 2722 
Q 1828 2722 1647 2597 
Q 1466 2472 1398 2265 
Q 1331 2059 1331 1503 
L 1331 0 
L 453 0 
L 453 3319 
L 1269 3319 
L 1269 2831 
Q 1703 3394 2363 3394 
Q 2653 3394 2893 3289 
Q 3134 3184 3257 3021 
Q 3381 2859 3429 2653 
Q 3478 2447 3478 2063 
L 3478 0 
z
" transform="scale(0.015625)"/>
      <path id="Arial-BoldMT-64" d="M 3503 0 
L 2688 0 
L 2688 488 
Q 2484 203 2207 64 
Q 1931 -75 1650 -75 
Q 1078 -75 670 386 
Q 263 847 263 1672 
Q 263 2516 659 2955 
Q 1056 3394 1663 3394 
Q 2219 3394 2625 2931 
L 2625 4581 
L 3503 4581 
L 3503 0 
z
M 1159 1731 
Q 1159 1200 1306 963 
Q 1519 619 1900 619 
Q 2203 619 2415 876 
Q 2628 1134 2628 1647 
Q 2628 2219 2422 2470 
Q 2216 2722 1894 2722 
Q 1581 2722 1370 2473 
Q 1159 2225 1159 1731 
z
" transform="scale(0.015625)"/>
     </defs>
     <use xlink:href="#Arial-BoldMT-45"/>
     <use xlink:href="#Arial-BoldMT-6e" x="66.699219"/>
     <use xlink:href="#Arial-BoldMT-64" x="127.783203"/>
    </g>
   </g>
   <g id="text_2">
    <!-- Real-time Video Feed Handling -->
    <g style="fill: #ffffff" transform="translate(283.147656 857.510729) scale(0.1 -0.1)">
     <defs>
      <path id="Arial-BoldMT-52" d="M 469 0 
L 469 4581 
L 2416 4581 
Q 3150 4581 3483 4457 
Q 3816 4334 4016 4018 
Q 4216 3703 4216 3297 
Q 4216 2781 3912 2445 
Q 3609 2109 3006 2022 
Q 3306 1847 3501 1637 
Q 3697 1428 4028 894 
L 4588 0 
L 3481 0 
L 2813 997 
Q 2456 1531 2325 1670 
Q 2194 1809 2047 1861 
Q 1900 1913 1581 1913 
L 1394 1913 
L 1394 0 
L 469 0 
z
M 1394 2644 
L 2078 2644 
Q 2744 2644 2909 2700 
Q 3075 2756 3169 2893 
Q 3263 3031 3263 3238 
Q 3263 3469 3139 3611 
Q 3016 3753 2791 3791 
Q 2678 3806 2116 3806 
L 1394 3806 
L 1394 2644 
z
" transform="scale(0.015625)"/>
      <path id="Arial-BoldMT-65" d="M 2381 1056 
L 3256 909 
Q 3088 428 2723 176 
Q 2359 -75 1813 -75 
Q 947 -75 531 491 
Q 203 944 203 1634 
Q 203 2459 634 2926 
Q 1066 3394 1725 3394 
Q 2466 3394 2894 2905 
Q 3322 2416 3303 1406 
L 1103 1406 
Q 1113 1016 1316 798 
Q 1519 581 1822 581 
Q 2028 581 2168 693 
Q 2309 806 2381 1056 
z
M 2431 1944 
Q 2422 2325 2234 2523 
Q 2047 2722 1778 2722 
Q 1491 2722 1303 2513 
Q 1116 2303 1119 1944 
L 2431 1944 
z
" transform="scale(0.015625)"/>
      <path id="Arial-BoldMT-61" d="M 1116 2306 
L 319 2450 
Q 453 2931 781 3162 
Q 1109 3394 1756 3394 
Q 2344 3394 2631 3255 
Q 2919 3116 3036 2902 
Q 3153 2688 3153 2116 
L 3144 1091 
Q 3144 653 3186 445 
Q 3228 238 3344 0 
L 2475 0 
Q 2441 88 2391 259 
Q 2369 338 2359 363 
Q 2134 144 1878 34 
Q 1622 -75 1331 -75 
Q 819 -75 523 203 
Q 228 481 228 906 
Q 228 1188 362 1408 
Q 497 1628 739 1745 
Q 981 1863 1438 1950 
Q 2053 2066 2291 2166 
L 2291 2253 
Q 2291 2506 2166 2614 
Q 2041 2722 1694 2722 
Q 1459 2722 1328 2630 
Q 1197 2538 1116 2306 
z
M 2291 1594 
Q 2122 1538 1756 1459 
Q 1391 1381 1278 1306 
Q 1106 1184 1106 997 
Q 1106 813 1243 678 
Q 1381 544 1594 544 
Q 1831 544 2047 700 
Q 2206 819 2256 991 
Q 2291 1103 2291 1419 
L 2291 1594 
z
" transform="scale(0.015625)"/>
      <path id="Arial-BoldMT-6c" d="M 459 0 
L 459 4581 
L 1338 4581 
L 1338 0 
L 459 0 
z
" transform="scale(0.015625)"/>
      <path id="Arial-BoldMT-2d" d="M 359 1222 
L 359 2100 
L 2084 2100 
L 2084 1222 
L 359 1222 
z
" transform="scale(0.015625)"/>
      <path id="Arial-BoldMT-74" d="M 1981 3319 
L 1981 2619 
L 1381 2619 
L 1381 1281 
Q 1381 875 1398 808 
Q 1416 741 1477 697 
Q 1538 653 1625 653 
Q 1747 653 1978 738 
L 2053 56 
Q 1747 -75 1359 -75 
Q 1122 -75 931 4 
Q 741 84 652 211 
Q 563 338 528 553 
Q 500 706 500 1172 
L 500 2619 
L 97 2619 
L 97 3319 
L 500 3319 
L 500 3978 
L 1381 4491 
L 1381 3319 
L 1981 3319 
z
" transform="scale(0.015625)"/>
      <path id="Arial-BoldMT-69" d="M 459 3769 
L 459 4581 
L 1338 4581 
L 1338 3769 
L 459 3769 
z
M 459 0 
L 459 3319 
L 1338 3319 
L 1338 0 
L 459 0 
z
" transform="scale(0.015625)"/>
      <path id="Arial-BoldMT-6d" d="M 394 3319 
L 1203 3319 
L 1203 2866 
Q 1638 3394 2238 3394 
Q 2556 3394 2790 3262 
Q 3025 3131 3175 2866 
Q 3394 3131 3647 3262 
Q 3900 3394 4188 3394 
Q 4553 3394 4806 3245 
Q 5059 3097 5184 2809 
Q 5275 2597 5275 2122 
L 5275 0 
L 4397 0 
L 4397 1897 
Q 4397 2391 4306 2534 
Q 4184 2722 3931 2722 
Q 3747 2722 3584 2609 
Q 3422 2497 3350 2280 
Q 3278 2063 3278 1594 
L 3278 0 
L 2400 0 
L 2400 1819 
Q 2400 2303 2353 2443 
Q 2306 2584 2207 2653 
Q 2109 2722 1941 2722 
Q 1738 2722 1575 2612 
Q 1413 2503 1342 2297 
Q 1272 2091 1272 1613 
L 1272 0 
L 394 0 
L 394 3319 
z
" transform="scale(0.015625)"/>
      <path id="Arial-BoldMT-20" transform="scale(0.015625)"/>
      <path id="Arial-BoldMT-56" d="M 1634 0 
L -3 4581 
L 1000 4581 
L 2159 1191 
L 3281 4581 
L 4263 4581 
L 2622 0 
L 1634 0 
z
" transform="scale(0.015625)"/>
      <path id="Arial-BoldMT-6f" d="M 256 1706 
Q 256 2144 472 2553 
Q 688 2963 1083 3178 
Q 1478 3394 1966 3394 
Q 2719 3394 3200 2905 
Q 3681 2416 3681 1669 
Q 3681 916 3195 420 
Q 2709 -75 1972 -75 
Q 1516 -75 1102 131 
Q 688 338 472 736 
Q 256 1134 256 1706 
z
M 1156 1659 
Q 1156 1166 1390 903 
Q 1625 641 1969 641 
Q 2313 641 2545 903 
Q 2778 1166 2778 1666 
Q 2778 2153 2545 2415 
Q 2313 2678 1969 2678 
Q 1625 2678 1390 2415 
Q 1156 2153 1156 1659 
z
" transform="scale(0.015625)"/>
      <path id="Arial-BoldMT-46" d="M 472 0 
L 472 4581 
L 3613 4581 
L 3613 3806 
L 1397 3806 
L 1397 2722 
L 3309 2722 
L 3309 1947 
L 1397 1947 
L 1397 0 
L 472 0 
z
" transform="scale(0.015625)"/>
      <path id="Arial-BoldMT-48" d="M 469 0 
L 469 4581 
L 1394 4581 
L 1394 2778 
L 3206 2778 
L 3206 4581 
L 4131 4581 
L 4131 0 
L 3206 0 
L 3206 2003 
L 1394 2003 
L 1394 0 
L 469 0 
z
" transform="scale(0.015625)"/>
      <path id="Arial-BoldMT-67" d="M 378 -219 
L 1381 -341 
Q 1406 -516 1497 -581 
Q 1622 -675 1891 -675 
Q 2234 -675 2406 -572 
Q 2522 -503 2581 -350 
Q 2622 -241 2622 53 
L 2622 538 
Q 2228 0 1628 0 
Q 959 0 569 566 
Q 263 1013 263 1678 
Q 263 2513 664 2953 
Q 1066 3394 1663 3394 
Q 2278 3394 2678 2853 
L 2678 3319 
L 3500 3319 
L 3500 341 
Q 3500 -247 3403 -537 
Q 3306 -828 3131 -993 
Q 2956 -1159 2664 -1253 
Q 2372 -1347 1925 -1347 
Q 1081 -1347 728 -1058 
Q 375 -769 375 -325 
Q 375 -281 378 -219 
z
M 1163 1728 
Q 1163 1200 1367 954 
Q 1572 709 1872 709 
Q 2194 709 2416 961 
Q 2638 1213 2638 1706 
Q 2638 2222 2425 2472 
Q 2213 2722 1888 2722 
Q 1572 2722 1367 2476 
Q 1163 2231 1163 1728 
z
" transform="scale(0.015625)"/>
     </defs>
     <use xlink:href="#Arial-BoldMT-52"/>
     <use xlink:href="#Arial-BoldMT-65" x="72.216797"/>
     <use xlink:href="#Arial-BoldMT-61" x="127.832031"/>
     <use xlink:href="#Arial-BoldMT-6c" x="183.447266"/>
     <use xlink:href="#Arial-BoldMT-2d" x="211.230469"/>
     <use xlink:href="#Arial-BoldMT-74" x="244.53125"/>
     <use xlink:href="#Arial-BoldMT-69" x="277.832031"/>
     <use xlink:href="#Arial-BoldMT-6d" x="305.615234"/>
     <use xlink:href="#Arial-BoldMT-65" x="394.53125"/>
     <use xlink:href="#Arial-BoldMT-20" x="450.146484"/>
     <use xlink:href="#Arial-BoldMT-56" x="477.929688"/>
     <use xlink:href="#Arial-BoldMT-69" x="542.878906"/>
     <use xlink:href="#Arial-BoldMT-64" x="570.662109"/>
     <use xlink:href="#Arial-BoldMT-65" x="631.746094"/>
     <use xlink:href="#Arial-BoldMT-6f" x="687.361328"/>
     <use xlink:href="#Arial-BoldMT-20" x="748.445312"/>
     <use xlink:href="#Arial-BoldMT-46" x="776.228516"/>
     <use xlink:href="#Arial-BoldMT-65" x="837.3125"/>
     <use xlink:href="#Arial-BoldMT-65" x="892.927734"/>
     <use xlink:href="#Arial-BoldMT-64" x="948.542969"/>
     <use xlink:href="#Arial-BoldMT-20" x="1009.626953"/>
     <use xlink:href="#Arial-BoldMT-48" x="1037.410156"/>
     <use xlink:href="#Arial-BoldMT-61" x="1109.626953"/>
     <use xlink:href="#Arial-BoldMT-6e" x="1165.242188"/>
     <use xlink:href="#Arial-BoldMT-64" x="1226.326172"/>
     <use xlink:href="#Arial-BoldMT-6c" x="1287.410156"/>
     <use xlink:href="#Arial-BoldMT-69" x="1315.193359"/>
     <use xlink:href="#Arial-BoldMT-6e" x="1342.976562"/>
     <use xlink:href="#Arial-BoldMT-67" x="1404.060547"/>
    </g>
   </g>
   <g id="text_3">
    <!-- Adaptive Update -->
    <g style="fill: #ffffff" transform="translate(316.952344 778.003021) scale(0.1 -0.1)">
     <defs>
      <path id="Arial-BoldMT-41" d="M 4597 0 
L 3591 0 
L 3191 1041 
L 1359 1041 
L 981 0 
L 0 0 
L 1784 4581 
L 2763 4581 
L 4597 0 
z
M 2894 1813 
L 2263 3513 
L 1644 1813 
L 2894 1813 
z
" transform="scale(0.015625)"/>
      <path id="Arial-BoldMT-70" d="M 434 3319 
L 1253 3319 
L 1253 2831 
Q 1413 3081 1684 3237 
Q 1956 3394 2288 3394 
Q 2866 3394 3269 2941 
Q 3672 2488 3672 1678 
Q 3672 847 3265 386 
Q 2859 -75 2281 -75 
Q 2006 -75 1782 34 
Q 1559 144 1313 409 
L 1313 -1263 
L 434 -1263 
L 434 3319 
z
M 1303 1716 
Q 1303 1156 1525 889 
Q 1747 622 2066 622 
Q 2372 622 2575 867 
Q 2778 1113 2778 1672 
Q 2778 2194 2568 2447 
Q 2359 2700 2050 2700 
Q 1728 2700 1515 2451 
Q 1303 2203 1303 1716 
z
" transform="scale(0.015625)"/>
      <path id="Arial-BoldMT-76" d="M 1372 0 
L 34 3319 
L 956 3319 
L 1581 1625 
L 1763 1059 
Q 1834 1275 1853 1344 
Q 1897 1484 1947 1625 
L 2578 3319 
L 3481 3319 
L 2163 0 
L 1372 0 
z
" transform="scale(0.015625)"/>
      <path id="Arial-BoldMT-55" d="M 459 4581 
L 1384 4581 
L 1384 2100 
Q 1384 1509 1419 1334 
Q 1478 1053 1701 883 
Q 1925 713 2313 713 
Q 2706 713 2906 873 
Q 3106 1034 3147 1268 
Q 3188 1503 3188 2047 
L 3188 4581 
L 4113 4581 
L 4113 2175 
Q 4113 1350 4038 1009 
Q 3963 669 3761 434 
Q 3559 200 3221 61 
Q 2884 -78 2341 -78 
Q 1684 -78 1345 73 
Q 1006 225 809 467 
Q 613 709 550 975 
Q 459 1369 459 2138 
L 459 4581 
z
" transform="scale(0.015625)"/>
     </defs>
     <use xlink:href="#Arial-BoldMT-41"/>
     <use xlink:href="#Arial-BoldMT-64" x="72.216797"/>
     <use xlink:href="#Arial-BoldMT-61" x="133.300781"/>
     <use xlink:href="#Arial-BoldMT-70" x="188.916016"/>
     <use xlink:href="#Arial-BoldMT-74" x="250"/>
     <use xlink:href="#Arial-BoldMT-69" x="283.300781"/>
     <use xlink:href="#Arial-BoldMT-76" x="311.083984"/>
     <use xlink:href="#Arial-BoldMT-65" x="366.699219"/>
     <use xlink:href="#Arial-BoldMT-20" x="422.314453"/>
     <use xlink:href="#Arial-BoldMT-55" x="450.097656"/>
     <use xlink:href="#Arial-BoldMT-70" x="522.314453"/>
     <use xlink:href="#Arial-BoldMT-64" x="583.398438"/>
     <use xlink:href="#Arial-BoldMT-61" x="644.482422"/>
     <use xlink:href="#Arial-BoldMT-74" x="700.097656"/>
     <use xlink:href="#Arial-BoldMT-65" x="733.398438"/>
    </g>
   </g>
   <g id="text_4">
    <!-- Performance Opt -->
    <g style="fill: #ffffff" transform="translate(315.835156 698.490625) scale(0.1 -0.1)">
     <defs>
      <path id="Arial-BoldMT-50" d="M 466 0 
L 466 4581 
L 1950 4581 
Q 2794 4581 3050 4513 
Q 3444 4409 3709 4064 
Q 3975 3719 3975 3172 
Q 3975 2750 3822 2462 
Q 3669 2175 3433 2011 
Q 3197 1847 2953 1794 
Q 2622 1728 1994 1728 
L 1391 1728 
L 1391 0 
L 466 0 
z
M 1391 3806 
L 1391 2506 
L 1897 2506 
Q 2444 2506 2628 2578 
Q 2813 2650 2917 2803 
Q 3022 2956 3022 3159 
Q 3022 3409 2875 3571 
Q 2728 3734 2503 3775 
Q 2338 3806 1838 3806 
L 1391 3806 
z
" transform="scale(0.015625)"/>
      <path id="Arial-BoldMT-72" d="M 1300 0 
L 422 0 
L 422 3319 
L 1238 3319 
L 1238 2847 
Q 1447 3181 1614 3287 
Q 1781 3394 1994 3394 
Q 2294 3394 2572 3228 
L 2300 2463 
Q 2078 2606 1888 2606 
Q 1703 2606 1575 2504 
Q 1447 2403 1373 2137 
Q 1300 1872 1300 1025 
L 1300 0 
z
" transform="scale(0.015625)"/>
      <path id="Arial-BoldMT-66" d="M 75 3319 
L 563 3319 
L 563 3569 
Q 563 3988 652 4194 
Q 741 4400 980 4529 
Q 1219 4659 1584 4659 
Q 1959 4659 2319 4547 
L 2200 3934 
Q 1991 3984 1797 3984 
Q 1606 3984 1523 3895 
Q 1441 3806 1441 3553 
L 1441 3319 
L 2097 3319 
L 2097 2628 
L 1441 2628 
L 1441 0 
L 563 0 
L 563 2628 
L 75 2628 
L 75 3319 
z
" transform="scale(0.015625)"/>
      <path id="Arial-BoldMT-63" d="M 3353 2338 
L 2488 2181 
Q 2444 2441 2289 2572 
Q 2134 2703 1888 2703 
Q 1559 2703 1364 2476 
Q 1169 2250 1169 1719 
Q 1169 1128 1367 884 
Q 1566 641 1900 641 
Q 2150 641 2309 783 
Q 2469 925 2534 1272 
L 3397 1125 
Q 3263 531 2881 228 
Q 2500 -75 1859 -75 
Q 1131 -75 698 384 
Q 266 844 266 1656 
Q 266 2478 700 2936 
Q 1134 3394 1875 3394 
Q 2481 3394 2839 3133 
Q 3197 2872 3353 2338 
z
" transform="scale(0.015625)"/>
      <path id="Arial-BoldMT-4f" d="M 278 2263 
Q 278 2963 488 3438 
Q 644 3788 914 4066 
Q 1184 4344 1506 4478 
Q 1934 4659 2494 4659 
Q 3506 4659 4114 4031 
Q 4722 3403 4722 2284 
Q 4722 1175 4119 548 
Q 3516 -78 2506 -78 
Q 1484 -78 881 545 
Q 278 1169 278 2263 
z
M 1231 2294 
Q 1231 1516 1590 1114 
Q 1950 713 2503 713 
Q 3056 713 3411 1111 
Q 3766 1509 3766 2306 
Q 3766 3094 3420 3481 
Q 3075 3869 2503 3869 
Q 1931 3869 1581 3476 
Q 1231 3084 1231 2294 
z
" transform="scale(0.015625)"/>
     </defs>
     <use xlink:href="#Arial-BoldMT-50"/>
     <use xlink:href="#Arial-BoldMT-65" x="66.699219"/>
     <use xlink:href="#Arial-BoldMT-72" x="122.314453"/>
     <use xlink:href="#Arial-BoldMT-66" x="161.230469"/>
     <use xlink:href="#Arial-BoldMT-6f" x="194.53125"/>
     <use xlink:href="#Arial-BoldMT-72" x="255.615234"/>
     <use xlink:href="#Arial-BoldMT-6d" x="294.53125"/>
     <use xlink:href="#Arial-BoldMT-61" x="383.447266"/>
     <use xlink:href="#Arial-BoldMT-6e" x="439.0625"/>
     <use xlink:href="#Arial-BoldMT-63" x="500.146484"/>
     <use xlink:href="#Arial-BoldMT-65" x="555.761719"/>
     <use xlink:href="#Arial-BoldMT-20" x="611.376953"/>
     <use xlink:href="#Arial-BoldMT-4f" x="639.160156"/>
     <use xlink:href="#Arial-BoldMT-70" x="716.943359"/>
     <use xlink:href="#Arial-BoldMT-74" x="778.027344"/>
    </g>
   </g>
   <g id="text_5">
    <!-- Database Access -->
    <g style="fill: #ffffff" transform="translate(315.453125 618.856354) scale(0.1 -0.1)">
     <defs>
      <path id="Arial-BoldMT-44" d="M 463 4581 
L 2153 4581 
Q 2725 4581 3025 4494 
Q 3428 4375 3715 4072 
Q 4003 3769 4153 3330 
Q 4303 2891 4303 2247 
Q 4303 1681 4163 1272 
Q 3991 772 3672 463 
Q 3431 228 3022 97 
Q 2716 0 2203 0 
L 463 0 
L 463 4581 
z
M 1388 3806 
L 1388 772 
L 2078 772 
Q 2466 772 2638 816 
Q 2863 872 3011 1006 
Q 3159 1141 3253 1448 
Q 3347 1756 3347 2288 
Q 3347 2819 3253 3103 
Q 3159 3388 2990 3547 
Q 2822 3706 2563 3763 
Q 2369 3806 1803 3806 
L 1388 3806 
z
" transform="scale(0.015625)"/>
      <path id="Arial-BoldMT-62" d="M 422 0 
L 422 4581 
L 1300 4581 
L 1300 2931 
Q 1706 3394 2263 3394 
Q 2869 3394 3266 2955 
Q 3663 2516 3663 1694 
Q 3663 844 3258 384 
Q 2853 -75 2275 -75 
Q 1991 -75 1714 67 
Q 1438 209 1238 488 
L 1238 0 
L 422 0 
z
M 1294 1731 
Q 1294 1216 1456 969 
Q 1684 619 2063 619 
Q 2353 619 2558 867 
Q 2763 1116 2763 1650 
Q 2763 2219 2556 2470 
Q 2350 2722 2028 2722 
Q 1713 2722 1503 2476 
Q 1294 2231 1294 1731 
z
" transform="scale(0.015625)"/>
      <path id="Arial-BoldMT-73" d="M 150 947 
L 1031 1081 
Q 1088 825 1259 692 
Q 1431 559 1741 559 
Q 2081 559 2253 684 
Q 2369 772 2369 919 
Q 2369 1019 2306 1084 
Q 2241 1147 2013 1200 
Q 950 1434 666 1628 
Q 272 1897 272 2375 
Q 272 2806 612 3100 
Q 953 3394 1669 3394 
Q 2350 3394 2681 3172 
Q 3013 2950 3138 2516 
L 2309 2363 
Q 2256 2556 2107 2659 
Q 1959 2763 1684 2763 
Q 1338 2763 1188 2666 
Q 1088 2597 1088 2488 
Q 1088 2394 1175 2328 
Q 1294 2241 1995 2081 
Q 2697 1922 2975 1691 
Q 3250 1456 3250 1038 
Q 3250 581 2869 253 
Q 2488 -75 1741 -75 
Q 1063 -75 667 200 
Q 272 475 150 947 
z
" transform="scale(0.015625)"/>
     </defs>
     <use xlink:href="#Arial-BoldMT-44"/>
     <use xlink:href="#Arial-BoldMT-61" x="72.216797"/>
     <use xlink:href="#Arial-BoldMT-74" x="127.832031"/>
     <use xlink:href="#Arial-BoldMT-61" x="161.132812"/>
     <use xlink:href="#Arial-BoldMT-62" x="216.748047"/>
     <use xlink:href="#Arial-BoldMT-61" x="277.832031"/>
     <use xlink:href="#Arial-BoldMT-73" x="333.447266"/>
     <use xlink:href="#Arial-BoldMT-65" x="389.0625"/>
     <use xlink:href="#Arial-BoldMT-20" x="444.677734"/>
     <use xlink:href="#Arial-BoldMT-41" x="468.710938"/>
     <use xlink:href="#Arial-BoldMT-63" x="540.927734"/>
     <use xlink:href="#Arial-BoldMT-63" x="596.542969"/>
     <use xlink:href="#Arial-BoldMT-65" x="652.158203"/>
     <use xlink:href="#Arial-BoldMT-73" x="707.773438"/>
     <use xlink:href="#Arial-BoldMT-73" x="763.388672"/>
    </g>
   </g>
   <g id="text_6">
    <!-- Tolerance Set -->
    <g style="fill: #ffffff" transform="translate(323.980469 539.283021) scale(0.1 -0.1)">
     <defs>
      <path id="Arial-BoldMT-54" d="M 1497 0 
L 1497 3806 
L 138 3806 
L 138 4581 
L 3778 4581 
L 3778 3806 
L 2422 3806 
L 2422 0 
L 1497 0 
z
" transform="scale(0.015625)"/>
      <path id="Arial-BoldMT-53" d="M 231 1491 
L 1131 1578 
Q 1213 1125 1461 912 
Q 1709 700 2131 700 
Q 2578 700 2804 889 
Q 3031 1078 3031 1331 
Q 3031 1494 2936 1608 
Q 2841 1722 2603 1806 
Q 2441 1863 1863 2006 
Q 1119 2191 819 2459 
Q 397 2838 397 3381 
Q 397 3731 595 4036 
Q 794 4341 1167 4500 
Q 1541 4659 2069 4659 
Q 2931 4659 3367 4281 
Q 3803 3903 3825 3272 
L 2900 3231 
Q 2841 3584 2645 3739 
Q 2450 3894 2059 3894 
Q 1656 3894 1428 3728 
Q 1281 3622 1281 3444 
Q 1281 3281 1419 3166 
Q 1594 3019 2269 2859 
Q 2944 2700 3267 2529 
Q 3591 2359 3773 2064 
Q 3956 1769 3956 1334 
Q 3956 941 3737 597 
Q 3519 253 3119 86 
Q 2719 -81 2122 -81 
Q 1253 -81 787 320 
Q 322 722 231 1491 
z
" transform="scale(0.015625)"/>
     </defs>
     <use xlink:href="#Arial-BoldMT-54"/>
     <use xlink:href="#Arial-BoldMT-6f" x="53.708984"/>
     <use xlink:href="#Arial-BoldMT-6c" x="114.792969"/>
     <use xlink:href="#Arial-BoldMT-65" x="142.576172"/>
     <use xlink:href="#Arial-BoldMT-72" x="198.191406"/>
     <use xlink:href="#Arial-BoldMT-61" x="237.107422"/>
     <use xlink:href="#Arial-BoldMT-6e" x="292.722656"/>
     <use xlink:href="#Arial-BoldMT-63" x="353.806641"/>
     <use xlink:href="#Arial-BoldMT-65" x="409.421875"/>
     <use xlink:href="#Arial-BoldMT-20" x="465.037109"/>
     <use xlink:href="#Arial-BoldMT-53" x="492.820312"/>
     <use xlink:href="#Arial-BoldMT-65" x="559.519531"/>
     <use xlink:href="#Arial-BoldMT-74" x="615.134766"/>
    </g>
   </g>
   <g id="text_7">
    <!-- Face Comparison -->
    <g style="fill: #ffffff" transform="translate(314.446875 459.770625) scale(0.1 -0.1)">
     <defs>
      <path id="Arial-BoldMT-43" d="M 3397 1684 
L 4294 1400 
Q 4088 650 3608 286 
Q 3128 -78 2391 -78 
Q 1478 -78 890 545 
Q 303 1169 303 2250 
Q 303 3394 893 4026 
Q 1484 4659 2447 4659 
Q 3288 4659 3813 4163 
Q 4125 3869 4281 3319 
L 3366 3100 
Q 3284 3456 3026 3662 
Q 2769 3869 2400 3869 
Q 1891 3869 1573 3503 
Q 1256 3138 1256 2319 
Q 1256 1450 1568 1081 
Q 1881 713 2381 713 
Q 2750 713 3015 947 
Q 3281 1181 3397 1684 
z
" transform="scale(0.015625)"/>
     </defs>
     <use xlink:href="#Arial-BoldMT-46"/>
     <use xlink:href="#Arial-BoldMT-61" x="61.083984"/>
     <use xlink:href="#Arial-BoldMT-63" x="116.699219"/>
     <use xlink:href="#Arial-BoldMT-65" x="172.314453"/>
     <use xlink:href="#Arial-BoldMT-20" x="227.929688"/>
     <use xlink:href="#Arial-BoldMT-43" x="255.712891"/>
     <use xlink:href="#Arial-BoldMT-6f" x="327.929688"/>
     <use xlink:href="#Arial-BoldMT-6d" x="389.013672"/>
     <use xlink:href="#Arial-BoldMT-70" x="477.929688"/>
     <use xlink:href="#Arial-BoldMT-61" x="539.013672"/>
     <use xlink:href="#Arial-BoldMT-72" x="594.628906"/>
     <use xlink:href="#Arial-BoldMT-69" x="633.544922"/>
     <use xlink:href="#Arial-BoldMT-73" x="661.328125"/>
     <use xlink:href="#Arial-BoldMT-6f" x="716.943359"/>
     <use xlink:href="#Arial-BoldMT-6e" x="778.027344"/>
    </g>
   </g>
   <g id="text_8">
    <!-- Data Compression -->
    <g style="fill: #ffffff" transform="translate(312.225 380.197292) scale(0.1 -0.1)">
     <use xlink:href="#Arial-BoldMT-44"/>
     <use xlink:href="#Arial-BoldMT-61" x="72.216797"/>
     <use xlink:href="#Arial-BoldMT-74" x="127.832031"/>
     <use xlink:href="#Arial-BoldMT-61" x="161.132812"/>
     <use xlink:href="#Arial-BoldMT-20" x="216.748047"/>
     <use xlink:href="#Arial-BoldMT-43" x="244.53125"/>
     <use xlink:href="#Arial-BoldMT-6f" x="316.748047"/>
     <use xlink:href="#Arial-BoldMT-6d" x="377.832031"/>
     <use xlink:href="#Arial-BoldMT-70" x="466.748047"/>
     <use xlink:href="#Arial-BoldMT-72" x="527.832031"/>
     <use xlink:href="#Arial-BoldMT-65" x="566.748047"/>
     <use xlink:href="#Arial-BoldMT-73" x="622.363281"/>
     <use xlink:href="#Arial-BoldMT-73" x="677.978516"/>
     <use xlink:href="#Arial-BoldMT-69" x="733.59375"/>
     <use xlink:href="#Arial-BoldMT-6f" x="761.376953"/>
     <use xlink:href="#Arial-BoldMT-6e" x="822.460938"/>
    </g>
   </g>
   <g id="text_9">
    <!-- Face Encoding -->
    <g style="fill: #ffffff" transform="translate(320.841406 300.497396) scale(0.1 -0.1)">
     <use xlink:href="#Arial-BoldMT-46"/>
     <use xlink:href="#Arial-BoldMT-61" x="61.083984"/>
     <use xlink:href="#Arial-BoldMT-63" x="116.699219"/>
     <use xlink:href="#Arial-BoldMT-65" x="172.314453"/>
     <use xlink:href="#Arial-BoldMT-20" x="227.929688"/>
     <use xlink:href="#Arial-BoldMT-45" x="255.712891"/>
     <use xlink:href="#Arial-BoldMT-6e" x="322.412109"/>
     <use xlink:href="#Arial-BoldMT-63" x="383.496094"/>
     <use xlink:href="#Arial-BoldMT-6f" x="439.111328"/>
     <use xlink:href="#Arial-BoldMT-64" x="500.195312"/>
     <use xlink:href="#Arial-BoldMT-69" x="561.279297"/>
     <use xlink:href="#Arial-BoldMT-6e" x="589.0625"/>
     <use xlink:href="#Arial-BoldMT-67" x="650.146484"/>
    </g>
   </g>
   <g id="text_10">
    <!-- CNN-based Detection -->
    <g style="fill: #ffffff" transform="translate(305.285156 220.989688) scale(0.1 -0.1)">
     <defs>
      <path id="Arial-BoldMT-4e" d="M 475 0 
L 475 4581 
L 1375 4581 
L 3250 1522 
L 3250 4581 
L 4109 4581 
L 4109 0 
L 3181 0 
L 1334 2988 
L 1334 0 
L 475 0 
z
" transform="scale(0.015625)"/>
     </defs>
     <use xlink:href="#Arial-BoldMT-43"/>
     <use xlink:href="#Arial-BoldMT-4e" x="72.216797"/>
     <use xlink:href="#Arial-BoldMT-4e" x="144.433594"/>
     <use xlink:href="#Arial-BoldMT-2d" x="216.650391"/>
     <use xlink:href="#Arial-BoldMT-62" x="249.951172"/>
     <use xlink:href="#Arial-BoldMT-61" x="311.035156"/>
     <use xlink:href="#Arial-BoldMT-73" x="366.650391"/>
     <use xlink:href="#Arial-BoldMT-65" x="422.265625"/>
     <use xlink:href="#Arial-BoldMT-64" x="477.880859"/>
     <use xlink:href="#Arial-BoldMT-20" x="538.964844"/>
     <use xlink:href="#Arial-BoldMT-44" x="566.748047"/>
     <use xlink:href="#Arial-BoldMT-65" x="638.964844"/>
     <use xlink:href="#Arial-BoldMT-74" x="694.580078"/>
     <use xlink:href="#Arial-BoldMT-65" x="727.880859"/>
     <use xlink:href="#Arial-BoldMT-63" x="783.496094"/>
     <use xlink:href="#Arial-BoldMT-74" x="839.111328"/>
     <use xlink:href="#Arial-BoldMT-69" x="872.412109"/>
     <use xlink:href="#Arial-BoldMT-6f" x="900.195312"/>
     <use xlink:href="#Arial-BoldMT-6e" x="961.279297"/>
    </g>
   </g>
   <g id="text_11">
    <!-- Detection Failed? -->
    <g style="fill: #ffffff" transform="translate(314.73125 161.309688) scale(0.1 -0.1)">
     <defs>
      <path id="Arial-BoldMT-3f" d="M 2347 1181 
L 1550 1181 
Q 1547 1353 1547 1391 
Q 1547 1778 1675 2028 
Q 1803 2278 2187 2590 
Q 2572 2903 2647 3000 
Q 2763 3153 2763 3338 
Q 2763 3594 2558 3776 
Q 2353 3959 2006 3959 
Q 1672 3959 1447 3768 
Q 1222 3578 1138 3188 
L 331 3288 
Q 366 3847 808 4237 
Q 1250 4628 1969 4628 
Q 2725 4628 3172 4233 
Q 3619 3838 3619 3313 
Q 3619 3022 3455 2762 
Q 3291 2503 2753 2056 
Q 2475 1825 2408 1684 
Q 2341 1544 2347 1181 
z
M 1550 0 
L 1550 878 
L 2428 878 
L 2428 0 
L 1550 0 
z
" transform="scale(0.015625)"/>
     </defs>
     <use xlink:href="#Arial-BoldMT-44"/>
     <use xlink:href="#Arial-BoldMT-65" x="72.216797"/>
     <use xlink:href="#Arial-BoldMT-74" x="127.832031"/>
     <use xlink:href="#Arial-BoldMT-65" x="161.132812"/>
     <use xlink:href="#Arial-BoldMT-63" x="216.748047"/>
     <use xlink:href="#Arial-BoldMT-74" x="272.363281"/>
     <use xlink:href="#Arial-BoldMT-69" x="305.664062"/>
     <use xlink:href="#Arial-BoldMT-6f" x="333.447266"/>
     <use xlink:href="#Arial-BoldMT-6e" x="394.53125"/>
     <use xlink:href="#Arial-BoldMT-20" x="455.615234"/>
     <use xlink:href="#Arial-BoldMT-46" x="483.398438"/>
     <use xlink:href="#Arial-BoldMT-61" x="544.482422"/>
     <use xlink:href="#Arial-BoldMT-69" x="600.097656"/>
     <use xlink:href="#Arial-BoldMT-6c" x="627.880859"/>
     <use xlink:href="#Arial-BoldMT-65" x="655.664062"/>
     <use xlink:href="#Arial-BoldMT-64" x="711.279297"/>
     <use xlink:href="#Arial-BoldMT-3f" x="772.363281"/>
    </g>
   </g>
   <g id="text_12">
    <!-- Face Detection -->
    <g style="fill: #ffffff" transform="translate(320.836719 101.629688) scale(0.1 -0.1)">
     <use xlink:href="#Arial-BoldMT-46"/>
     <use xlink:href="#Arial-BoldMT-61" x="61.083984"/>
     <use xlink:href="#Arial-BoldMT-63" x="116.699219"/>
     <use xlink:href="#Arial-BoldMT-65" x="172.314453"/>
     <use xlink:href="#Arial-BoldMT-20" x="227.929688"/>
     <use xlink:href="#Arial-BoldMT-44" x="255.712891"/>
     <use xlink:href="#Arial-BoldMT-65" x="327.929688"/>
     <use xlink:href="#Arial-BoldMT-74" x="383.544922"/>
     <use xlink:href="#Arial-BoldMT-65" x="416.845703"/>
     <use xlink:href="#Arial-BoldMT-63" x="472.460938"/>
     <use xlink:href="#Arial-BoldMT-74" x="528.076172"/>
     <use xlink:href="#Arial-BoldMT-69" x="561.376953"/>
     <use xlink:href="#Arial-BoldMT-6f" x="589.160156"/>
     <use xlink:href="#Arial-BoldMT-6e" x="650.244141"/>
    </g>
   </g>
   <g id="text_13">
    <!-- Start -->
    <g style="fill: #ffffff" transform="translate(345.008594 61.843021) scale(0.1 -0.1)">
     <use xlink:href="#Arial-BoldMT-53"/>
     <use xlink:href="#Arial-BoldMT-74" x="66.699219"/>
     <use xlink:href="#Arial-BoldMT-61" x="100"/>
     <use xlink:href="#Arial-BoldMT-72" x="155.615234"/>
     <use xlink:href="#Arial-BoldMT-74" x="194.53125"/>
    </g>
   </g>
   <g id="text_14">
    <!-- (HOG-based) -->
    <g style="fill: #ffffff" transform="translate(330.504375 113.181) scale(0.08 -0.08)">
     <defs>
      <path id="DejaVuSans-28" d="M 1984 4856 
Q 1566 4138 1362 3434 
Q 1159 2731 1159 2009 
Q 1159 1288 1364 580 
Q 1569 -128 1984 -844 
L 1484 -844 
Q 1016 -109 783 600 
Q 550 1309 550 2009 
Q 550 2706 781 3412 
Q 1013 4119 1484 4856 
L 1984 4856 
z
" transform="scale(0.015625)"/>
      <path id="DejaVuSans-48" d="M 628 4666 
L 1259 4666 
L 1259 2753 
L 3553 2753 
L 3553 4666 
L 4184 4666 
L 4184 0 
L 3553 0 
L 3553 2222 
L 1259 2222 
L 1259 0 
L 628 0 
L 628 4666 
z
" transform="scale(0.015625)"/>
      <path id="DejaVuSans-4f" d="M 2522 4238 
Q 1834 4238 1429 3725 
Q 1025 3213 1025 2328 
Q 1025 1447 1429 934 
Q 1834 422 2522 422 
Q 3209 422 3611 934 
Q 4013 1447 4013 2328 
Q 4013 3213 3611 3725 
Q 3209 4238 2522 4238 
z
M 2522 4750 
Q 3503 4750 4090 4092 
Q 4678 3434 4678 2328 
Q 4678 1225 4090 567 
Q 3503 -91 2522 -91 
Q 1538 -91 948 565 
Q 359 1222 359 2328 
Q 359 3434 948 4092 
Q 1538 4750 2522 4750 
z
" transform="scale(0.015625)"/>
      <path id="DejaVuSans-47" d="M 3809 666 
L 3809 1919 
L 2778 1919 
L 2778 2438 
L 4434 2438 
L 4434 434 
Q 4069 175 3628 42 
Q 3188 -91 2688 -91 
Q 1594 -91 976 548 
Q 359 1188 359 2328 
Q 359 3472 976 4111 
Q 1594 4750 2688 4750 
Q 3144 4750 3555 4637 
Q 3966 4525 4313 4306 
L 4313 3634 
Q 3963 3931 3569 4081 
Q 3175 4231 2741 4231 
Q 1884 4231 1454 3753 
Q 1025 3275 1025 2328 
Q 1025 1384 1454 906 
Q 1884 428 2741 428 
Q 3075 428 3337 486 
Q 3600 544 3809 666 
z
" transform="scale(0.015625)"/>
      <path id="DejaVuSans-2d" d="M 313 2009 
L 1997 2009 
L 1997 1497 
L 313 1497 
L 313 2009 
z
" transform="scale(0.015625)"/>
      <path id="DejaVuSans-62" d="M 3116 1747 
Q 3116 2381 2855 2742 
Q 2594 3103 2138 3103 
Q 1681 3103 1420 2742 
Q 1159 2381 1159 1747 
Q 1159 1113 1420 752 
Q 1681 391 2138 391 
Q 2594 391 2855 752 
Q 3116 1113 3116 1747 
z
M 1159 2969 
Q 1341 3281 1617 3432 
Q 1894 3584 2278 3584 
Q 2916 3584 3314 3078 
Q 3713 2572 3713 1747 
Q 3713 922 3314 415 
Q 2916 -91 2278 -91 
Q 1894 -91 1617 61 
Q 1341 213 1159 525 
L 1159 0 
L 581 0 
L 581 4863 
L 1159 4863 
L 1159 2969 
z
" transform="scale(0.015625)"/>
      <path id="DejaVuSans-61" d="M 2194 1759 
Q 1497 1759 1228 1600 
Q 959 1441 959 1056 
Q 959 750 1161 570 
Q 1363 391 1709 391 
Q 2188 391 2477 730 
Q 2766 1069 2766 1631 
L 2766 1759 
L 2194 1759 
z
M 3341 1997 
L 3341 0 
L 2766 0 
L 2766 531 
Q 2569 213 2275 61 
Q 1981 -91 1556 -91 
Q 1019 -91 701 211 
Q 384 513 384 1019 
Q 384 1609 779 1909 
Q 1175 2209 1959 2209 
L 2766 2209 
L 2766 2266 
Q 2766 2663 2505 2880 
Q 2244 3097 1772 3097 
Q 1472 3097 1187 3025 
Q 903 2953 641 2809 
L 641 3341 
Q 956 3463 1253 3523 
Q 1550 3584 1831 3584 
Q 2591 3584 2966 3190 
Q 3341 2797 3341 1997 
z
" transform="scale(0.015625)"/>
      <path id="DejaVuSans-73" d="M 2834 3397 
L 2834 2853 
Q 2591 2978 2328 3040 
Q 2066 3103 1784 3103 
Q 1356 3103 1142 2972 
Q 928 2841 928 2578 
Q 928 2378 1081 2264 
Q 1234 2150 1697 2047 
L 1894 2003 
Q 2506 1872 2764 1633 
Q 3022 1394 3022 966 
Q 3022 478 2636 193 
Q 2250 -91 1575 -91 
Q 1294 -91 989 -36 
Q 684 19 347 128 
L 347 722 
Q 666 556 975 473 
Q 1284 391 1588 391 
Q 1994 391 2212 530 
Q 2431 669 2431 922 
Q 2431 1156 2273 1281 
Q 2116 1406 1581 1522 
L 1381 1569 
Q 847 1681 609 1914 
Q 372 2147 372 2553 
Q 372 3047 722 3315 
Q 1072 3584 1716 3584 
Q 2034 3584 2315 3537 
Q 2597 3491 2834 3397 
z
" transform="scale(0.015625)"/>
      <path id="DejaVuSans-65" d="M 3597 1894 
L 3597 1613 
L 953 1613 
Q 991 1019 1311 708 
Q 1631 397 2203 397 
Q 2534 397 2845 478 
Q 3156 559 3463 722 
L 3463 178 
Q 3153 47 2828 -22 
Q 2503 -91 2169 -91 
Q 1331 -91 842 396 
Q 353 884 353 1716 
Q 353 2575 817 3079 
Q 1281 3584 2069 3584 
Q 2775 3584 3186 3129 
Q 3597 2675 3597 1894 
z
M 3022 2063 
Q 3016 2534 2758 2815 
Q 2500 3097 2075 3097 
Q 1594 3097 1305 2825 
Q 1016 2553 972 2059 
L 3022 2063 
z
" transform="scale(0.015625)"/>
      <path id="DejaVuSans-64" d="M 2906 2969 
L 2906 4863 
L 3481 4863 
L 3481 0 
L 2906 0 
L 2906 525 
Q 2725 213 2448 61 
Q 2172 -91 1784 -91 
Q 1150 -91 751 415 
Q 353 922 353 1747 
Q 353 2572 751 3078 
Q 1150 3584 1784 3584 
Q 2172 3584 2448 3432 
Q 2725 3281 2906 2969 
z
M 947 1747 
Q 947 1113 1208 752 
Q 1469 391 1925 391 
Q 2381 391 2643 752 
Q 2906 1113 2906 1747 
Q 2906 2381 2643 2742 
Q 2381 3103 1925 3103 
Q 1469 3103 1208 2742 
Q 947 2381 947 1747 
z
" transform="scale(0.015625)"/>
      <path id="DejaVuSans-29" d="M 513 4856 
L 1013 4856 
Q 1481 4119 1714 3412 
Q 1947 2706 1947 2009 
Q 1947 1309 1714 600 
Q 1481 -109 1013 -844 
L 513 -844 
Q 928 -128 1133 580 
Q 1338 1288 1338 2009 
Q 1338 2731 1133 3434 
Q 928 4138 513 4856 
z
" transform="scale(0.015625)"/>
     </defs>
     <use xlink:href="#DejaVuSans-28"/>
     <use xlink:href="#DejaVuSans-48" x="39.013672"/>
     <use xlink:href="#DejaVuSans-4f" x="114.208984"/>
     <use xlink:href="#DejaVuSans-47" x="192.919922"/>
     <use xlink:href="#DejaVuSans-2d" x="270.410156"/>
     <use xlink:href="#DejaVuSans-62" x="306.494141"/>
     <use xlink:href="#DejaVuSans-61" x="369.970703"/>
     <use xlink:href="#DejaVuSans-73" x="431.25"/>
     <use xlink:href="#DejaVuSans-65" x="483.349609"/>
     <use xlink:href="#DejaVuSans-64" x="544.873047"/>
     <use xlink:href="#DejaVuSans-29" x="608.349609"/>
    </g>
   </g>
   <g id="text_15">
    <!-- (128-D Feature) -->
    <g style="fill: #ffffff" transform="translate(324.7375 312.114333) scale(0.08 -0.08)">
     <defs>
      <path id="DejaVuSans-31" d="M 794 531 
L 1825 531 
L 1825 4091 
L 703 3866 
L 703 4441 
L 1819 4666 
L 2450 4666 
L 2450 531 
L 3481 531 
L 3481 0 
L 794 0 
L 794 531 
z
" transform="scale(0.015625)"/>
      <path id="DejaVuSans-32" d="M 1228 531 
L 3431 531 
L 3431 0 
L 469 0 
L 469 531 
Q 828 903 1448 1529 
Q 2069 2156 2228 2338 
Q 2531 2678 2651 2914 
Q 2772 3150 2772 3378 
Q 2772 3750 2511 3984 
Q 2250 4219 1831 4219 
Q 1534 4219 1204 4116 
Q 875 4013 500 3803 
L 500 4441 
Q 881 4594 1212 4672 
Q 1544 4750 1819 4750 
Q 2544 4750 2975 4387 
Q 3406 4025 3406 3419 
Q 3406 3131 3298 2873 
Q 3191 2616 2906 2266 
Q 2828 2175 2409 1742 
Q 1991 1309 1228 531 
z
" transform="scale(0.015625)"/>
      <path id="DejaVuSans-38" d="M 2034 2216 
Q 1584 2216 1326 1975 
Q 1069 1734 1069 1313 
Q 1069 891 1326 650 
Q 1584 409 2034 409 
Q 2484 409 2743 651 
Q 3003 894 3003 1313 
Q 3003 1734 2745 1975 
Q 2488 2216 2034 2216 
z
M 1403 2484 
Q 997 2584 770 2862 
Q 544 3141 544 3541 
Q 544 4100 942 4425 
Q 1341 4750 2034 4750 
Q 2731 4750 3128 4425 
Q 3525 4100 3525 3541 
Q 3525 3141 3298 2862 
Q 3072 2584 2669 2484 
Q 3125 2378 3379 2068 
Q 3634 1759 3634 1313 
Q 3634 634 3220 271 
Q 2806 -91 2034 -91 
Q 1263 -91 848 271 
Q 434 634 434 1313 
Q 434 1759 690 2068 
Q 947 2378 1403 2484 
z
M 1172 3481 
Q 1172 3119 1398 2916 
Q 1625 2713 2034 2713 
Q 2441 2713 2670 2916 
Q 2900 3119 2900 3481 
Q 2900 3844 2670 4047 
Q 2441 4250 2034 4250 
Q 1625 4250 1398 4047 
Q 1172 3844 1172 3481 
z
" transform="scale(0.015625)"/>
      <path id="DejaVuSans-44" d="M 1259 4147 
L 1259 519 
L 2022 519 
Q 2988 519 3436 956 
Q 3884 1394 3884 2338 
Q 3884 3275 3436 3711 
Q 2988 4147 2022 4147 
L 1259 4147 
z
M 628 4666 
L 1925 4666 
Q 3281 4666 3915 4102 
Q 4550 3538 4550 2338 
Q 4550 1131 3912 565 
Q 3275 0 1925 0 
L 628 0 
L 628 4666 
z
" transform="scale(0.015625)"/>
      <path id="DejaVuSans-20" transform="scale(0.015625)"/>
      <path id="DejaVuSans-46" d="M 628 4666 
L 3309 4666 
L 3309 4134 
L 1259 4134 
L 1259 2759 
L 3109 2759 
L 3109 2228 
L 1259 2228 
L 1259 0 
L 628 0 
L 628 4666 
z
" transform="scale(0.015625)"/>
      <path id="DejaVuSans-74" d="M 1172 4494 
L 1172 3500 
L 2356 3500 
L 2356 3053 
L 1172 3053 
L 1172 1153 
Q 1172 725 1289 603 
Q 1406 481 1766 481 
L 2356 481 
L 2356 0 
L 1766 0 
Q 1100 0 847 248 
Q 594 497 594 1153 
L 594 3053 
L 172 3053 
L 172 3500 
L 594 3500 
L 594 4494 
L 1172 4494 
z
" transform="scale(0.015625)"/>
      <path id="DejaVuSans-75" d="M 544 1381 
L 544 3500 
L 1119 3500 
L 1119 1403 
Q 1119 906 1312 657 
Q 1506 409 1894 409 
Q 2359 409 2629 706 
Q 2900 1003 2900 1516 
L 2900 3500 
L 3475 3500 
L 3475 0 
L 2900 0 
L 2900 538 
Q 2691 219 2414 64 
Q 2138 -91 1772 -91 
Q 1169 -91 856 284 
Q 544 659 544 1381 
z
M 1991 3584 
L 1991 3584 
z
" transform="scale(0.015625)"/>
      <path id="DejaVuSans-72" d="M 2631 2963 
Q 2534 3019 2420 3045 
Q 2306 3072 2169 3072 
Q 1681 3072 1420 2755 
Q 1159 2438 1159 1844 
L 1159 0 
L 581 0 
L 581 3500 
L 1159 3500 
L 1159 2956 
Q 1341 3275 1631 3429 
Q 1922 3584 2338 3584 
Q 2397 3584 2469 3576 
Q 2541 3569 2628 3553 
L 2631 2963 
z
" transform="scale(0.015625)"/>
     </defs>
     <use xlink:href="#DejaVuSans-28"/>
     <use xlink:href="#DejaVuSans-31" x="39.013672"/>
     <use xlink:href="#DejaVuSans-32" x="102.636719"/>
     <use xlink:href="#DejaVuSans-38" x="166.259766"/>
     <use xlink:href="#DejaVuSans-2d" x="229.882812"/>
     <use xlink:href="#DejaVuSans-44" x="265.966797"/>
     <use xlink:href="#DejaVuSans-20" x="342.96875"/>
     <use xlink:href="#DejaVuSans-46" x="374.755859"/>
     <use xlink:href="#DejaVuSans-65" x="426.775391"/>
     <use xlink:href="#DejaVuSans-61" x="488.298828"/>
     <use xlink:href="#DejaVuSans-74" x="549.578125"/>
     <use xlink:href="#DejaVuSans-75" x="588.787109"/>
     <use xlink:href="#DejaVuSans-72" x="652.166016"/>
     <use xlink:href="#DejaVuSans-65" x="691.029297"/>
     <use xlink:href="#DejaVuSans-29" x="752.552734"/>
    </g>
   </g>
   <g id="text_16">
    <!-- (Euclidean Dist.) -->
    <g style="fill: #ffffff" transform="translate(323.421875 471.261) scale(0.08 -0.08)">
     <defs>
      <path id="DejaVuSans-45" d="M 628 4666 
L 3578 4666 
L 3578 4134 
L 1259 4134 
L 1259 2753 
L 3481 2753 
L 3481 2222 
L 1259 2222 
L 1259 531 
L 3634 531 
L 3634 0 
L 628 0 
L 628 4666 
z
" transform="scale(0.015625)"/>
      <path id="DejaVuSans-63" d="M 3122 3366 
L 3122 2828 
Q 2878 2963 2633 3030 
Q 2388 3097 2138 3097 
Q 1578 3097 1268 2742 
Q 959 2388 959 1747 
Q 959 1106 1268 751 
Q 1578 397 2138 397 
Q 2388 397 2633 464 
Q 2878 531 3122 666 
L 3122 134 
Q 2881 22 2623 -34 
Q 2366 -91 2075 -91 
Q 1284 -91 818 406 
Q 353 903 353 1747 
Q 353 2603 823 3093 
Q 1294 3584 2113 3584 
Q 2378 3584 2631 3529 
Q 2884 3475 3122 3366 
z
" transform="scale(0.015625)"/>
      <path id="DejaVuSans-6c" d="M 603 4863 
L 1178 4863 
L 1178 0 
L 603 0 
L 603 4863 
z
" transform="scale(0.015625)"/>
      <path id="DejaVuSans-69" d="M 603 3500 
L 1178 3500 
L 1178 0 
L 603 0 
L 603 3500 
z
M 603 4863 
L 1178 4863 
L 1178 4134 
L 603 4134 
L 603 4863 
z
" transform="scale(0.015625)"/>
      <path id="DejaVuSans-6e" d="M 3513 2113 
L 3513 0 
L 2938 0 
L 2938 2094 
Q 2938 2591 2744 2837 
Q 2550 3084 2163 3084 
Q 1697 3084 1428 2787 
Q 1159 2491 1159 1978 
L 1159 0 
L 581 0 
L 581 3500 
L 1159 3500 
L 1159 2956 
Q 1366 3272 1645 3428 
Q 1925 3584 2291 3584 
Q 2894 3584 3203 3211 
Q 3513 2838 3513 2113 
z
" transform="scale(0.015625)"/>
      <path id="DejaVuSans-2e" d="M 684 794 
L 1344 794 
L 1344 0 
L 684 0 
L 684 794 
z
" transform="scale(0.015625)"/>
     </defs>
     <use xlink:href="#DejaVuSans-28"/>
     <use xlink:href="#DejaVuSans-45" x="39.013672"/>
     <use xlink:href="#DejaVuSans-75" x="102.197266"/>
     <use xlink:href="#DejaVuSans-63" x="165.576172"/>
     <use xlink:href="#DejaVuSans-6c" x="220.556641"/>
     <use xlink:href="#DejaVuSans-69" x="248.339844"/>
     <use xlink:href="#DejaVuSans-64" x="276.123047"/>
     <use xlink:href="#DejaVuSans-65" x="339.599609"/>
     <use xlink:href="#DejaVuSans-61" x="401.123047"/>
     <use xlink:href="#DejaVuSans-6e" x="462.402344"/>
     <use xlink:href="#DejaVuSans-20" x="525.78125"/>
     <use xlink:href="#DejaVuSans-44" x="557.568359"/>
     <use xlink:href="#DejaVuSans-69" x="634.570312"/>
     <use xlink:href="#DejaVuSans-73" x="662.353516"/>
     <use xlink:href="#DejaVuSans-74" x="714.453125"/>
     <use xlink:href="#DejaVuSans-2e" x="753.662109"/>
     <use xlink:href="#DejaVuSans-29" x="785.449219"/>
    </g>
   </g>
   <g id="text_17">
    <!-- (Frame Sampling, Caching, Parallel Processing) -->
    <g style="fill: #ffffff" transform="translate(262.36875 709.981) scale(0.08 -0.08)">
     <defs>
      <path id="DejaVuSans-6d" d="M 3328 2828 
Q 3544 3216 3844 3400 
Q 4144 3584 4550 3584 
Q 5097 3584 5394 3201 
Q 5691 2819 5691 2113 
L 5691 0 
L 5113 0 
L 5113 2094 
Q 5113 2597 4934 2840 
Q 4756 3084 4391 3084 
Q 3944 3084 3684 2787 
Q 3425 2491 3425 1978 
L 3425 0 
L 2847 0 
L 2847 2094 
Q 2847 2600 2669 2842 
Q 2491 3084 2119 3084 
Q 1678 3084 1418 2786 
Q 1159 2488 1159 1978 
L 1159 0 
L 581 0 
L 581 3500 
L 1159 3500 
L 1159 2956 
Q 1356 3278 1631 3431 
Q 1906 3584 2284 3584 
Q 2666 3584 2933 3390 
Q 3200 3197 3328 2828 
z
" transform="scale(0.015625)"/>
      <path id="DejaVuSans-53" d="M 3425 4513 
L 3425 3897 
Q 3066 4069 2747 4153 
Q 2428 4238 2131 4238 
Q 1616 4238 1336 4038 
Q 1056 3838 1056 3469 
Q 1056 3159 1242 3001 
Q 1428 2844 1947 2747 
L 2328 2669 
Q 3034 2534 3370 2195 
Q 3706 1856 3706 1288 
Q 3706 609 3251 259 
Q 2797 -91 1919 -91 
Q 1588 -91 1214 -16 
Q 841 59 441 206 
L 441 856 
Q 825 641 1194 531 
Q 1563 422 1919 422 
Q 2459 422 2753 634 
Q 3047 847 3047 1241 
Q 3047 1584 2836 1778 
Q 2625 1972 2144 2069 
L 1759 2144 
Q 1053 2284 737 2584 
Q 422 2884 422 3419 
Q 422 4038 858 4394 
Q 1294 4750 2059 4750 
Q 2388 4750 2728 4690 
Q 3069 4631 3425 4513 
z
" transform="scale(0.015625)"/>
      <path id="DejaVuSans-70" d="M 1159 525 
L 1159 -1331 
L 581 -1331 
L 581 3500 
L 1159 3500 
L 1159 2969 
Q 1341 3281 1617 3432 
Q 1894 3584 2278 3584 
Q 2916 3584 3314 3078 
Q 3713 2572 3713 1747 
Q 3713 922 3314 415 
Q 2916 -91 2278 -91 
Q 1894 -91 1617 61 
Q 1341 213 1159 525 
z
M 3116 1747 
Q 3116 2381 2855 2742 
Q 2594 3103 2138 3103 
Q 1681 3103 1420 2742 
Q 1159 2381 1159 1747 
Q 1159 1113 1420 752 
Q 1681 391 2138 391 
Q 2594 391 2855 752 
Q 3116 1113 3116 1747 
z
" transform="scale(0.015625)"/>
      <path id="DejaVuSans-67" d="M 2906 1791 
Q 2906 2416 2648 2759 
Q 2391 3103 1925 3103 
Q 1463 3103 1205 2759 
Q 947 2416 947 1791 
Q 947 1169 1205 825 
Q 1463 481 1925 481 
Q 2391 481 2648 825 
Q 2906 1169 2906 1791 
z
M 3481 434 
Q 3481 -459 3084 -895 
Q 2688 -1331 1869 -1331 
Q 1566 -1331 1297 -1286 
Q 1028 -1241 775 -1147 
L 775 -588 
Q 1028 -725 1275 -790 
Q 1522 -856 1778 -856 
Q 2344 -856 2625 -561 
Q 2906 -266 2906 331 
L 2906 616 
Q 2728 306 2450 153 
Q 2172 0 1784 0 
Q 1141 0 747 490 
Q 353 981 353 1791 
Q 353 2603 747 3093 
Q 1141 3584 1784 3584 
Q 2172 3584 2450 3431 
Q 2728 3278 2906 2969 
L 2906 3500 
L 3481 3500 
L 3481 434 
z
" transform="scale(0.015625)"/>
      <path id="DejaVuSans-2c" d="M 750 794 
L 1409 794 
L 1409 256 
L 897 -744 
L 494 -744 
L 750 256 
L 750 794 
z
" transform="scale(0.015625)"/>
      <path id="DejaVuSans-43" d="M 4122 4306 
L 4122 3641 
Q 3803 3938 3442 4084 
Q 3081 4231 2675 4231 
Q 1875 4231 1450 3742 
Q 1025 3253 1025 2328 
Q 1025 1406 1450 917 
Q 1875 428 2675 428 
Q 3081 428 3442 575 
Q 3803 722 4122 1019 
L 4122 359 
Q 3791 134 3420 21 
Q 3050 -91 2638 -91 
Q 1578 -91 968 557 
Q 359 1206 359 2328 
Q 359 3453 968 4101 
Q 1578 4750 2638 4750 
Q 3056 4750 3426 4639 
Q 3797 4528 4122 4306 
z
" transform="scale(0.015625)"/>
      <path id="DejaVuSans-68" d="M 3513 2113 
L 3513 0 
L 2938 0 
L 2938 2094 
Q 2938 2591 2744 2837 
Q 2550 3084 2163 3084 
Q 1697 3084 1428 2787 
Q 1159 2491 1159 1978 
L 1159 0 
L 581 0 
L 581 4863 
L 1159 4863 
L 1159 2956 
Q 1366 3272 1645 3428 
Q 1925 3584 2291 3584 
Q 2894 3584 3203 3211 
Q 3513 2838 3513 2113 
z
" transform="scale(0.015625)"/>
      <path id="DejaVuSans-50" d="M 1259 4147 
L 1259 2394 
L 2053 2394 
Q 2494 2394 2734 2622 
Q 2975 2850 2975 3272 
Q 2975 3691 2734 3919 
Q 2494 4147 2053 4147 
L 1259 4147 
z
M 628 4666 
L 2053 4666 
Q 2838 4666 3239 4311 
Q 3641 3956 3641 3272 
Q 3641 2581 3239 2228 
Q 2838 1875 2053 1875 
L 1259 1875 
L 1259 0 
L 628 0 
L 628 4666 
z
" transform="scale(0.015625)"/>
      <path id="DejaVuSans-6f" d="M 1959 3097 
Q 1497 3097 1228 2736 
Q 959 2375 959 1747 
Q 959 1119 1226 758 
Q 1494 397 1959 397 
Q 2419 397 2687 759 
Q 2956 1122 2956 1747 
Q 2956 2369 2687 2733 
Q 2419 3097 1959 3097 
z
M 1959 3584 
Q 2709 3584 3137 3096 
Q 3566 2609 3566 1747 
Q 3566 888 3137 398 
Q 2709 -91 1959 -91 
Q 1206 -91 779 398 
Q 353 888 353 1747 
Q 353 2609 779 3096 
Q 1206 3584 1959 3584 
z
" transform="scale(0.015625)"/>
     </defs>
     <use xlink:href="#DejaVuSans-28"/>
     <use xlink:href="#DejaVuSans-46" x="39.013672"/>
     <use xlink:href="#DejaVuSans-72" x="89.283203"/>
     <use xlink:href="#DejaVuSans-61" x="130.396484"/>
     <use xlink:href="#DejaVuSans-6d" x="191.675781"/>
     <use xlink:href="#DejaVuSans-65" x="289.087891"/>
     <use xlink:href="#DejaVuSans-20" x="350.611328"/>
     <use xlink:href="#DejaVuSans-53" x="382.398438"/>
     <use xlink:href="#DejaVuSans-61" x="445.875"/>
     <use xlink:href="#DejaVuSans-6d" x="507.154297"/>
     <use xlink:href="#DejaVuSans-70" x="604.566406"/>
     <use xlink:href="#DejaVuSans-6c" x="668.042969"/>
     <use xlink:href="#DejaVuSans-69" x="695.826172"/>
     <use xlink:href="#DejaVuSans-6e" x="723.609375"/>
     <use xlink:href="#DejaVuSans-67" x="786.988281"/>
     <use xlink:href="#DejaVuSans-2c" x="850.464844"/>
     <use xlink:href="#DejaVuSans-20" x="882.251953"/>
     <use xlink:href="#DejaVuSans-43" x="914.039062"/>
     <use xlink:href="#DejaVuSans-61" x="983.863281"/>
     <use xlink:href="#DejaVuSans-63" x="1045.142578"/>
     <use xlink:href="#DejaVuSans-68" x="1100.123047"/>
     <use xlink:href="#DejaVuSans-69" x="1163.501953"/>
     <use xlink:href="#DejaVuSans-6e" x="1191.285156"/>
     <use xlink:href="#DejaVuSans-67" x="1254.664062"/>
     <use xlink:href="#DejaVuSans-2c" x="1318.140625"/>
     <use xlink:href="#DejaVuSans-20" x="1349.927734"/>
     <use xlink:href="#DejaVuSans-50" x="1381.714844"/>
     <use xlink:href="#DejaVuSans-61" x="1437.517578"/>
     <use xlink:href="#DejaVuSans-72" x="1498.796875"/>
     <use xlink:href="#DejaVuSans-61" x="1539.910156"/>
     <use xlink:href="#DejaVuSans-6c" x="1601.189453"/>
     <use xlink:href="#DejaVuSans-6c" x="1628.972656"/>
     <use xlink:href="#DejaVuSans-65" x="1656.755859"/>
     <use xlink:href="#DejaVuSans-6c" x="1718.279297"/>
     <use xlink:href="#DejaVuSans-20" x="1746.0625"/>
     <use xlink:href="#DejaVuSans-50" x="1777.849609"/>
     <use xlink:href="#DejaVuSans-72" x="1836.402344"/>
     <use xlink:href="#DejaVuSans-6f" x="1875.265625"/>
     <use xlink:href="#DejaVuSans-63" x="1936.447266"/>
     <use xlink:href="#DejaVuSans-65" x="1991.427734"/>
     <use xlink:href="#DejaVuSans-73" x="2052.951172"/>
     <use xlink:href="#DejaVuSans-73" x="2105.050781"/>
     <use xlink:href="#DejaVuSans-69" x="2157.150391"/>
     <use xlink:href="#DejaVuSans-6e" x="2184.933594"/>
     <use xlink:href="#DejaVuSans-67" x="2248.3125"/>
     <use xlink:href="#DejaVuSans-29" x="2311.789062"/>
    </g>
   </g>
   <g id="text_18">
    <!-- (Lighting Adj.) -->
    <g style="fill: #ffffff" transform="translate(328.25125 789.554333) scale(0.08 -0.08)">
     <defs>
      <path id="DejaVuSans-4c" d="M 628 4666 
L 1259 4666 
L 1259 531 
L 3531 531 
L 3531 0 
L 628 0 
L 628 4666 
z
" transform="scale(0.015625)"/>
      <path id="DejaVuSans-41" d="M 2188 4044 
L 1331 1722 
L 3047 1722 
L 2188 4044 
z
M 1831 4666 
L 2547 4666 
L 4325 0 
L 3669 0 
L 3244 1197 
L 1141 1197 
L 716 0 
L 50 0 
L 1831 4666 
z
" transform="scale(0.015625)"/>
      <path id="DejaVuSans-6a" d="M 603 3500 
L 1178 3500 
L 1178 -63 
Q 1178 -731 923 -1031 
Q 669 -1331 103 -1331 
L -116 -1331 
L -116 -844 
L 38 -844 
Q 366 -844 484 -692 
Q 603 -541 603 -63 
L 603 3500 
z
M 603 4863 
L 1178 4863 
L 1178 4134 
L 603 4134 
L 603 4863 
z
" transform="scale(0.015625)"/>
     </defs>
     <use xlink:href="#DejaVuSans-28"/>
     <use xlink:href="#DejaVuSans-4c" x="39.013672"/>
     <use xlink:href="#DejaVuSans-69" x="94.726562"/>
     <use xlink:href="#DejaVuSans-67" x="122.509766"/>
     <use xlink:href="#DejaVuSans-68" x="185.986328"/>
     <use xlink:href="#DejaVuSans-74" x="249.365234"/>
     <use xlink:href="#DejaVuSans-69" x="288.574219"/>
     <use xlink:href="#DejaVuSans-6e" x="316.357422"/>
     <use xlink:href="#DejaVuSans-67" x="379.736328"/>
     <use xlink:href="#DejaVuSans-20" x="443.212891"/>
     <use xlink:href="#DejaVuSans-41" x="475"/>
     <use xlink:href="#DejaVuSans-64" x="541.658203"/>
     <use xlink:href="#DejaVuSans-6a" x="605.134766"/>
     <use xlink:href="#DejaVuSans-2e" x="632.917969"/>
     <use xlink:href="#DejaVuSans-29" x="664.705078"/>
    </g>
   </g>
   <g id="text_19">
    <!-- No -->
    <g transform="translate(250.368938 198.504167) scale(0.1 -0.1)">
     <defs>
      <path id="DejaVuSans-Bold-4e" d="M 588 4666 
L 1931 4666 
L 3628 1466 
L 3628 4666 
L 4769 4666 
L 4769 0 
L 3425 0 
L 1728 3200 
L 1728 0 
L 588 0 
L 588 4666 
z
" transform="scale(0.015625)"/>
      <path id="DejaVuSans-Bold-6f" d="M 2203 2784 
Q 1831 2784 1636 2517 
Q 1441 2250 1441 1747 
Q 1441 1244 1636 976 
Q 1831 709 2203 709 
Q 2569 709 2762 976 
Q 2956 1244 2956 1747 
Q 2956 2250 2762 2517 
Q 2569 2784 2203 2784 
z
M 2203 3584 
Q 3106 3584 3614 3096 
Q 4122 2609 4122 1747 
Q 4122 884 3614 396 
Q 3106 -91 2203 -91 
Q 1297 -91 786 396 
Q 275 884 275 1747 
Q 275 2609 786 3096 
Q 1297 3584 2203 3584 
z
" transform="scale(0.015625)"/>
     </defs>
     <use xlink:href="#DejaVuSans-Bold-4e"/>
     <use xlink:href="#DejaVuSans-Bold-6f" x="83.691406"/>
    </g>
   </g>
   <g id="text_20">
    <!-- Yes -->
    <g transform="translate(447.192 198.504167) scale(0.1 -0.1)">
     <defs>
      <path id="DejaVuSans-Bold-59" d="M -63 4666 
L 1253 4666 
L 2316 3003 
L 3378 4666 
L 4697 4666 
L 2919 1966 
L 2919 0 
L 1716 0 
L 1716 1966 
L -63 4666 
z
" transform="scale(0.015625)"/>
      <path id="DejaVuSans-Bold-65" d="M 4031 1759 
L 4031 1441 
L 1416 1441 
Q 1456 1047 1700 850 
Q 1944 653 2381 653 
Q 2734 653 3104 758 
Q 3475 863 3866 1075 
L 3866 213 
Q 3469 63 3072 -14 
Q 2675 -91 2278 -91 
Q 1328 -91 801 392 
Q 275 875 275 1747 
Q 275 2603 792 3093 
Q 1309 3584 2216 3584 
Q 3041 3584 3536 3087 
Q 4031 2591 4031 1759 
z
M 2881 2131 
Q 2881 2450 2695 2645 
Q 2509 2841 2209 2841 
Q 1884 2841 1681 2658 
Q 1478 2475 1428 2131 
L 2881 2131 
z
" transform="scale(0.015625)"/>
      <path id="DejaVuSans-Bold-73" d="M 3272 3391 
L 3272 2541 
Q 2913 2691 2578 2766 
Q 2244 2841 1947 2841 
Q 1628 2841 1473 2761 
Q 1319 2681 1319 2516 
Q 1319 2381 1436 2309 
Q 1553 2238 1856 2203 
L 2053 2175 
Q 2913 2066 3209 1816 
Q 3506 1566 3506 1031 
Q 3506 472 3093 190 
Q 2681 -91 1863 -91 
Q 1516 -91 1145 -36 
Q 775 19 384 128 
L 384 978 
Q 719 816 1070 734 
Q 1422 653 1784 653 
Q 2113 653 2278 743 
Q 2444 834 2444 1013 
Q 2444 1163 2330 1236 
Q 2216 1309 1875 1350 
L 1678 1375 
Q 931 1469 631 1722 
Q 331 1975 331 2491 
Q 331 3047 712 3315 
Q 1094 3584 1881 3584 
Q 2191 3584 2531 3537 
Q 2872 3491 3272 3391 
z
" transform="scale(0.015625)"/>
     </defs>
     <use xlink:href="#DejaVuSans-Bold-59"/>
     <use xlink:href="#DejaVuSans-Bold-65" x="63.287109"/>
     <use xlink:href="#DejaVuSans-Bold-73" x="131.109375"/>
    </g>
   </g>
   <g id="text_21">
    <!-- Face Recognition System Flow -->
    <g transform="translate(219.3175 19.3575) scale(0.16 -0.16)">
     <defs>
      <path id="DejaVuSans-Bold-46" d="M 588 4666 
L 3834 4666 
L 3834 3756 
L 1791 3756 
L 1791 2888 
L 3713 2888 
L 3713 1978 
L 1791 1978 
L 1791 0 
L 588 0 
L 588 4666 
z
" transform="scale(0.015625)"/>
      <path id="DejaVuSans-Bold-61" d="M 2106 1575 
Q 1756 1575 1579 1456 
Q 1403 1338 1403 1106 
Q 1403 894 1545 773 
Q 1688 653 1941 653 
Q 2256 653 2472 879 
Q 2688 1106 2688 1447 
L 2688 1575 
L 2106 1575 
z
M 3816 1997 
L 3816 0 
L 2688 0 
L 2688 519 
Q 2463 200 2181 54 
Q 1900 -91 1497 -91 
Q 953 -91 614 226 
Q 275 544 275 1050 
Q 275 1666 698 1953 
Q 1122 2241 2028 2241 
L 2688 2241 
L 2688 2328 
Q 2688 2594 2478 2717 
Q 2269 2841 1825 2841 
Q 1466 2841 1156 2769 
Q 847 2697 581 2553 
L 581 3406 
Q 941 3494 1303 3539 
Q 1666 3584 2028 3584 
Q 2975 3584 3395 3211 
Q 3816 2838 3816 1997 
z
" transform="scale(0.015625)"/>
      <path id="DejaVuSans-Bold-63" d="M 3366 3391 
L 3366 2478 
Q 3138 2634 2908 2709 
Q 2678 2784 2431 2784 
Q 1963 2784 1702 2511 
Q 1441 2238 1441 1747 
Q 1441 1256 1702 982 
Q 1963 709 2431 709 
Q 2694 709 2930 787 
Q 3166 866 3366 1019 
L 3366 103 
Q 3103 6 2833 -42 
Q 2563 -91 2291 -91 
Q 1344 -91 809 395 
Q 275 881 275 1747 
Q 275 2613 809 3098 
Q 1344 3584 2291 3584 
Q 2566 3584 2833 3536 
Q 3100 3488 3366 3391 
z
" transform="scale(0.015625)"/>
      <path id="DejaVuSans-Bold-20" transform="scale(0.015625)"/>
      <path id="DejaVuSans-Bold-52" d="M 2297 2597 
Q 2675 2597 2839 2737 
Q 3003 2878 3003 3200 
Q 3003 3519 2839 3656 
Q 2675 3794 2297 3794 
L 1791 3794 
L 1791 2597 
L 2297 2597 
z
M 1791 1766 
L 1791 0 
L 588 0 
L 588 4666 
L 2425 4666 
Q 3347 4666 3776 4356 
Q 4206 4047 4206 3378 
Q 4206 2916 3982 2619 
Q 3759 2322 3309 2181 
Q 3556 2125 3751 1926 
Q 3947 1728 4147 1325 
L 4800 0 
L 3519 0 
L 2950 1159 
Q 2778 1509 2601 1637 
Q 2425 1766 2131 1766 
L 1791 1766 
z
" transform="scale(0.015625)"/>
      <path id="DejaVuSans-Bold-67" d="M 2919 594 
Q 2688 288 2409 144 
Q 2131 0 1766 0 
Q 1125 0 706 504 
Q 288 1009 288 1791 
Q 288 2575 706 3076 
Q 1125 3578 1766 3578 
Q 2131 3578 2409 3434 
Q 2688 3291 2919 2981 
L 2919 3500 
L 4044 3500 
L 4044 353 
Q 4044 -491 3511 -936 
Q 2978 -1381 1966 -1381 
Q 1638 -1381 1331 -1331 
Q 1025 -1281 716 -1178 
L 716 -306 
Q 1009 -475 1290 -558 
Q 1572 -641 1856 -641 
Q 2406 -641 2662 -400 
Q 2919 -159 2919 353 
L 2919 594 
z
M 2181 2772 
Q 1834 2772 1640 2515 
Q 1447 2259 1447 1791 
Q 1447 1309 1634 1061 
Q 1822 813 2181 813 
Q 2531 813 2725 1069 
Q 2919 1325 2919 1791 
Q 2919 2259 2725 2515 
Q 2531 2772 2181 2772 
z
" transform="scale(0.015625)"/>
      <path id="DejaVuSans-Bold-6e" d="M 4056 2131 
L 4056 0 
L 2931 0 
L 2931 347 
L 2931 1631 
Q 2931 2084 2911 2256 
Q 2891 2428 2841 2509 
Q 2775 2619 2662 2680 
Q 2550 2741 2406 2741 
Q 2056 2741 1856 2470 
Q 1656 2200 1656 1722 
L 1656 0 
L 538 0 
L 538 3500 
L 1656 3500 
L 1656 2988 
Q 1909 3294 2193 3439 
Q 2478 3584 2822 3584 
Q 3428 3584 3742 3212 
Q 4056 2841 4056 2131 
z
" transform="scale(0.015625)"/>
      <path id="DejaVuSans-Bold-69" d="M 538 3500 
L 1656 3500 
L 1656 0 
L 538 0 
L 538 3500 
z
M 538 4863 
L 1656 4863 
L 1656 3950 
L 538 3950 
L 538 4863 
z
" transform="scale(0.015625)"/>
      <path id="DejaVuSans-Bold-74" d="M 1759 4494 
L 1759 3500 
L 2913 3500 
L 2913 2700 
L 1759 2700 
L 1759 1216 
Q 1759 972 1856 886 
Q 1953 800 2241 800 
L 2816 800 
L 2816 0 
L 1856 0 
Q 1194 0 917 276 
Q 641 553 641 1216 
L 641 2700 
L 84 2700 
L 84 3500 
L 641 3500 
L 641 4494 
L 1759 4494 
z
" transform="scale(0.015625)"/>
      <path id="DejaVuSans-Bold-53" d="M 3834 4519 
L 3834 3531 
Q 3450 3703 3084 3790 
Q 2719 3878 2394 3878 
Q 1963 3878 1756 3759 
Q 1550 3641 1550 3391 
Q 1550 3203 1689 3098 
Q 1828 2994 2194 2919 
L 2706 2816 
Q 3484 2659 3812 2340 
Q 4141 2022 4141 1434 
Q 4141 663 3683 286 
Q 3225 -91 2284 -91 
Q 1841 -91 1394 -6 
Q 947 78 500 244 
L 500 1259 
Q 947 1022 1364 901 
Q 1781 781 2169 781 
Q 2563 781 2772 912 
Q 2981 1044 2981 1288 
Q 2981 1506 2839 1625 
Q 2697 1744 2272 1838 
L 1806 1941 
Q 1106 2091 782 2419 
Q 459 2747 459 3303 
Q 459 4000 909 4375 
Q 1359 4750 2203 4750 
Q 2588 4750 2994 4692 
Q 3400 4634 3834 4519 
z
" transform="scale(0.015625)"/>
      <path id="DejaVuSans-Bold-79" d="M 78 3500 
L 1197 3500 
L 2138 1125 
L 2938 3500 
L 4056 3500 
L 2584 -331 
Q 2363 -916 2067 -1148 
Q 1772 -1381 1288 -1381 
L 641 -1381 
L 641 -647 
L 991 -647 
Q 1275 -647 1404 -556 
Q 1534 -466 1606 -231 
L 1638 -134 
L 78 3500 
z
" transform="scale(0.015625)"/>
      <path id="DejaVuSans-Bold-6d" d="M 3781 2919 
Q 3994 3244 4286 3414 
Q 4578 3584 4928 3584 
Q 5531 3584 5847 3212 
Q 6163 2841 6163 2131 
L 6163 0 
L 5038 0 
L 5038 1825 
Q 5041 1866 5042 1909 
Q 5044 1953 5044 2034 
Q 5044 2406 4934 2573 
Q 4825 2741 4581 2741 
Q 4263 2741 4089 2478 
Q 3916 2216 3909 1719 
L 3909 0 
L 2784 0 
L 2784 1825 
Q 2784 2406 2684 2573 
Q 2584 2741 2328 2741 
Q 2006 2741 1831 2477 
Q 1656 2213 1656 1722 
L 1656 0 
L 531 0 
L 531 3500 
L 1656 3500 
L 1656 2988 
Q 1863 3284 2130 3434 
Q 2397 3584 2719 3584 
Q 3081 3584 3359 3409 
Q 3638 3234 3781 2919 
z
" transform="scale(0.015625)"/>
      <path id="DejaVuSans-Bold-6c" d="M 538 4863 
L 1656 4863 
L 1656 0 
L 538 0 
L 538 4863 
z
" transform="scale(0.015625)"/>
      <path id="DejaVuSans-Bold-77" d="M 225 3500 
L 1313 3500 
L 1900 1088 
L 2491 3500 
L 3425 3500 
L 4013 1113 
L 4603 3500 
L 5691 3500 
L 4769 0 
L 3547 0 
L 2956 2406 
L 2369 0 
L 1147 0 
L 225 3500 
z
" transform="scale(0.015625)"/>
     </defs>
     <use xlink:href="#DejaVuSans-Bold-46"/>
     <use xlink:href="#DejaVuSans-Bold-61" x="62.435547"/>
     <use xlink:href="#DejaVuSans-Bold-63" x="129.916016"/>
     <use xlink:href="#DejaVuSans-Bold-65" x="189.193359"/>
     <use xlink:href="#DejaVuSans-Bold-20" x="257.015625"/>
     <use xlink:href="#DejaVuSans-Bold-52" x="291.830078"/>
     <use xlink:href="#DejaVuSans-Bold-65" x="368.832031"/>
     <use xlink:href="#DejaVuSans-Bold-63" x="436.654297"/>
     <use xlink:href="#DejaVuSans-Bold-6f" x="495.931641"/>
     <use xlink:href="#DejaVuSans-Bold-67" x="564.632812"/>
     <use xlink:href="#DejaVuSans-Bold-6e" x="636.214844"/>
     <use xlink:href="#DejaVuSans-Bold-69" x="707.40625"/>
     <use xlink:href="#DejaVuSans-Bold-74" x="741.683594"/>
     <use xlink:href="#DejaVuSans-Bold-69" x="789.486328"/>
     <use xlink:href="#DejaVuSans-Bold-6f" x="823.763672"/>
     <use xlink:href="#DejaVuSans-Bold-6e" x="892.464844"/>
     <use xlink:href="#DejaVuSans-Bold-20" x="963.65625"/>
     <use xlink:href="#DejaVuSans-Bold-53" x="998.470703"/>
     <use xlink:href="#DejaVuSans-Bold-79" x="1070.492188"/>
     <use xlink:href="#DejaVuSans-Bold-73" x="1135.677734"/>
     <use xlink:href="#DejaVuSans-Bold-74" x="1195.199219"/>
     <use xlink:href="#DejaVuSans-Bold-65" x="1243.001953"/>
     <use xlink:href="#DejaVuSans-Bold-6d" x="1310.824219"/>
     <use xlink:href="#DejaVuSans-Bold-20" x="1415.023438"/>
     <use xlink:href="#DejaVuSans-Bold-46" x="1449.837891"/>
     <use xlink:href="#DejaVuSans-Bold-6c" x="1518.148438"/>
     <use xlink:href="#DejaVuSans-Bold-6f" x="1552.425781"/>
     <use xlink:href="#DejaVuSans-Bold-77" x="1621.126953"/>
    </g>
   </g>
  </g>
 </g>
 <defs>
  <clipPath id="pfe51efb4b6">
   <rect x="7.2" y="39.3575" width="698.4" height="954.88"/>
  </clipPath>
 </defs>
</svg>
